<svg xmlns="http://www.w3.org/2000/svg" width="50" height="50" viewBox="0 0 50 50"><g><g><path fill="#0674ec" d="M2.085 47.988a.834.834 0 0 1 0 1.179l-.588.589a.827.827 0 0 1-1.174 0 .834.834 0 0 1 0-1.179l.587-.589a.828.828 0 0 1 1.175 0zm11.2-4.655c.46 0 .831.373.831.834 0 .46-.372.833-.83.833h-1.513a.832.832 0 0 1-.83-.833c0-.461.371-.834.83-.834zm4.537 0c.459 0 .83.373.83.834 0 .46-.371.833-.83.833H16.31a.832.832 0 0 1-.83-.833c0-.461.372-.834.83-.834zm-9.074 0c.459 0 .831.373.831.834 0 .46-.372.833-.83.833H7.236a.832.832 0 0 1-.831-.833c0-.461.372-.834.83-.834zM5.292 45.95l-1.07 1.073a.827.827 0 0 1-1.174 0 .834.834 0 0 1 0-1.179l1.07-1.072a.828.828 0 0 1 1.174 0 .834.834 0 0 1 0 1.178zm16.385-2.616c.459 0 .831.373.831.834 0 .46-.372.833-.83.833h-.831a.832.832 0 0 1-.831-.833c0-.461.372-.834.83-.834zM.322 44.554a.834.834 0 0 1 0-1.178l3.22-3.23a3.33 3.33 0 0 1 .507-.418 1.95 1.95 0 0 1 .214-.121l.079-.044c.092-.053.185-.103.284-.144.084-.035.177-.063.27-.088l.11-.033c.075-.025.151-.048.231-.066.226-.044.445-.065.657-.065h12.46c.46 0 .831.372.831.833 0 .46-.372.833-.83.833H5.895c-.11 0-.22.013-.329.034l-.31.095c-.031.014-.06.031-.089.049l-.16.086c-.125.077-.211.148-.29.227l-3.22 3.23a.827.827 0 0 1-1.175 0zm47.594-4.21a.834.834 0 0 1 0-1.177l.587-.59a.828.828 0 0 1 1.175 0 .834.834 0 0 1 0 1.179l-.588.589a.827.827 0 0 1-1.174 0zm-1.334 1.34a.834.834 0 0 1 0 1.178l-1.255 1.258a.828.828 0 0 1-1.174 0 .834.834 0 0 1 0-1.178l1.254-1.259a.828.828 0 0 1 1.175 0zm-10.446 1.65c.458 0 .83.372.83.833 0 .46-.372.833-.83.833h-1.774a.832.832 0 0 1-.83-.833c0-.461.371-.834.83-.834zm5.32 0c.46 0 .83.372.83.833 0 .46-.37.833-.83.833h-1.773a.831.831 0 0 1-.831-.833c0-.461.371-.834.83-.834zm-10.641 0c.458 0 .83.372.83.833 0 .46-.371.833-.83.833h-.83a.832.832 0 0 1-.831-.833c0-.461.372-.834.83-.834zm18.863.445a.834.834 0 0 1 0 1.178l-3.22 3.23a3.301 3.301 0 0 1-.51.42c-.064.043-.134.08-.206.116l-.082.045a2.502 2.502 0 0 1-.28.143 2.24 2.24 0 0 1-.278.092l-.104.031c-.08.027-.16.05-.245.068a3.246 3.246 0 0 1-.647.065H7.22l-.805.649a.828.828 0 0 1-1.167-.127.835.835 0 0 1 .126-1.172l1.26-1.017h37.473c.109 0 .217-.012.322-.033l.231-.07c.028-.008.055-.014.08-.025.034-.013.066-.034.1-.052l.156-.085c.125-.078.21-.148.288-.226l3.22-3.23a.829.829 0 0 1 1.175 0zm-16.371-4.612h9.423l2.25-2.256a.828.828 0 0 1 1.174 0 .834.834 0 0 1 0 1.178l-2.736 2.744H33.307a.832.832 0 0 1-.83-.833c0-.461.372-.833.83-.833zM13.215 27.14c-4.761-6.367-4.07-16.875 1.499-22.46A15.801 15.801 0 0 1 25.978 0c4.255 0 8.255 1.662 11.264 4.682 5.567 5.584 6.26 16.091 1.48 22.485L25.978 45.63zm7.095-11.308c0 3.216 2.608 5.833 5.815 5.833 3.206 0 5.815-2.617 5.815-5.833S29.33 10 26.125 10c-3.207 0-5.815 2.617-5.815 5.833z"/></g></g></svg>