<svg xmlns="http://www.w3.org/2000/svg" width="20" height="21" viewBox="0 0 20 21"><g><g><path d="M18.934 14.924A3.498 3.498 0 0 1 20 17.442c0 .95-.379 1.844-1.066 2.516A3.664 3.664 0 0 1 16.364 21a3.664 3.664 0 0 1-2.572-1.042 3.497 3.497 0 0 1-.824-3.787l-6.292-3.739a3.654 3.654 0 0 1-3.04 1.612C1.631 14.044 0 12.447 0 10.484c0-1.962 1.631-3.56 3.636-3.56 1.271 0 2.39.643 3.04 1.613l6.294-3.71a3.473 3.473 0 0 1-.243-1.268c0-1.963 1.632-3.56 3.637-3.56S20 1.596 20 3.56s-1.631 3.56-3.636 3.56a3.65 3.65 0 0 1-3.066-1.654L7.013 9.17c.166.407.26.85.26 1.315 0 .464-.094.906-.26 1.314l6.283 3.734a3.62 3.62 0 0 1 .496-.609 3.695 3.695 0 0 1 5.142 0zM13.454 3.56c0 1.57 1.306 2.847 2.91 2.847s2.909-1.277 2.909-2.847S17.968.71 16.363.71c-1.604 0-2.908 1.278-2.908 2.848zm-6.908 6.926c0-1.57-1.305-2.848-2.91-2.848-1.603 0-2.908 1.277-2.908 2.848 0 1.57 1.305 2.847 2.909 2.847 1.604 0 2.909-1.277 2.909-2.847zm12.727 6.957a2.8 2.8 0 0 0-.852-2.014 2.934 2.934 0 0 0-2.057-.833c-.745 0-1.49.278-2.057.833a2.8 2.8 0 0 0-.852 2.014c0 .76.302 1.475.852 2.013a2.957 2.957 0 0 0 4.113 0 2.8 2.8 0 0 0 .853-2.013z"/></g></g></svg>